<?xml version="1.0" standalone="no"?>
<!DOCTYPE svg PUBLIC "-//W3C//DTD SVG 20010904//EN"
 "http://www.w3.org/TR/2001/REC-SVG-20010904/DTD/svg10.dtd">
<svg version="1.0" xmlns="http://www.w3.org/2000/svg"
 width="350.000000pt" height="350.000000pt" viewBox="0 0 350.000000 350.000000"
 preserveAspectRatio="xMidYMid meet">
<metadata>
Created by potrace 1.11, written by Peter Selinger 2001-2013
</metadata>
<g transform="translate(0.000000,350.000000) scale(0.100000,-0.100000)"
fill="#000000" stroke="none">
<path d="M1595 3494 c-140 -19 -193 -29 -280 -51 -612 -153 -1106 -647 -1258
-1258 -44 -174 -52 -242 -52 -435 0 -193 8 -261 52 -435 152 -611 647 -1106
1258 -1258 174 -44 242 -52 435 -52 193 0 261 8 435 52 611 152 1106 647 1258
1258 44 174 52 242 52 435 0 193 -8 261 -52 435 -87 349 -288 669 -568 903
-244 205 -511 328 -840 388 -77 15 -378 27 -440 18z m-423 -1043 c201 -54 288
-164 288 -364 0 -80 -4 -100 -26 -146 -32 -63 -102 -122 -174 -146 -27 -9 -50
-20 -50 -24 0 -4 17 -13 38 -19 52 -16 128 -85 157 -143 16 -31 27 -73 31
-121 7 -95 20 -128 49 -128 31 0 43 18 47 70 l3 45 65 0 65 0 -1 -101 c0 -94
-2 -106 -33 -169 -51 -103 -128 -145 -266 -145 -157 0 -273 59 -333 167 -31
58 -34 72 -42 191 -5 70 -13 138 -18 152 -19 48 -55 71 -121 77 l-61 6 0 -157
0 -156 60 0 61 0 -3 -127 -3 -128 -320 0 -320 0 -3 128 -3 127 56 0 55 0 0
440 0 440 -55 0 -55 0 0 131 0 130 413 -3 c394 -4 416 -5 499 -27z m1188 -101
l0 -130 -50 0 -50 0 0 -156 c0 -94 4 -154 10 -152 11 4 310 261 335 288 18 20
17 20 -48 20 l-67 0 0 130 0 130 330 0 330 0 0 -130 0 -130 -57 0 -58 0 -140
-120 c-77 -66 -141 -124 -143 -129 -2 -5 87 -148 196 -317 l200 -309 61 -3 62
-3 -3 -127 -3 -127 -387 -3 -388 -2 0 130 0 130 61 0 c46 0 60 3 57 14 -6 27
-193 316 -205 316 -6 0 -41 -25 -77 -56 l-66 -56 0 -109 0 -109 50 0 50 0 0
-130 0 -130 -312 2 -313 3 -3 128 -3 127 56 0 55 0 0 439 0 440 -52 3 -53 3
-3 114 c-1 63 0 121 2 128 4 10 69 13 316 13 l310 0 0 -130z"/>
<path d="M790 2045 l0 -178 78 5 c52 3 91 12 118 26 104 53 111 223 12 294
-27 19 -48 24 -120 26 l-88 4 0 -177z"/>
</g>
</svg>
